<svg xmlns="http://www.w3.org/2000/svg" xmlns:xlink="http://www.w3.org/1999/xlink" fill="none" version="1.1" width="64" height="64" viewBox="0 0 64 64"><defs><clipPath id="master_svg0_5_1271"><rect x="0" y="0" width="64" height="64" rx="0"/></clipPath></defs><g clip-path="url(#master_svg0_5_1271)"><g><path d="M56,20L52,20C52,15.584,48.416,12,44,12L44,8C50.624,8,56,13.376000000000001,56,20ZM8,44L12,44C12,48.416,15.584,52,20,52L20,56C13.376000000000001,56,8,50.624,8,44ZM33.792,36.896L43.488,36.896L43.488,39.519999999999996L36.96,39.519999999999996L36.96,43.168L42.512,43.168L42.512,45.824L36.96,45.824L36.96,50.048L43.728,50.048L43.728,52.704L33.792,52.704L33.792,36.896ZM45.568,40.736L48.128,40.736L48.336,42.32L48.416,42.32C49.456,41.296,50.688,40.432,52.304,40.432C54.896,40.432,56,42.224,56,45.248L56,52.704L52.864,52.704L52.864,45.632C52.864,43.792,52.352,43.136,51.168,43.136C50.192,43.136,49.568,43.6,48.672,44.48L48.672,52.704L45.552,52.704L45.552,40.736L45.568,40.736Z" fill="#FFFFFF" fill-opacity="1"/></g><g><path d="M57.51997314453125,28.15999984741211L35.83997314453125,28.15999984741211L35.83997314453125,30.39999984741211L57.279973144531255,30.39999984741211C58.33597314453125,30.39999984741211,59.19997314453125,31.26399984741211,59.19997314453125,32.319999847412106L59.19997314453125,57.279999847412114C59.19997314453125,58.33599984741211,58.33597314453125,59.19999984741211,57.279973144531255,59.19999984741211L32.31997314453125,59.19999984741211C31.26397314453125,59.19999984741211,30.399973144531252,58.33599984741211,30.399973144531252,57.279999847412114L30.399973144531252,35.83999984741211L28.15997314453125,35.83999984741211L28.15997314453125,57.51999984741211C28.15997314453125,59.69599984741211,29.91997314453125,61.43999984741211,32.07997314453125,61.43999984741211L57.535973144531255,61.43999984741211C59.71197314453125,61.43999984741211,61.45597314453125,59.679999847412105,61.45597314453125,57.51999984741211L61.45597314453125,32.07999984741211C61.43997314453125,29.90399984741211,59.679973144531246,28.15999984741211,57.51997314453125,28.15999984741211Z" fill="#FFFFFF" fill-opacity="1"/></g><g><path d="M20.9600068359375,15.184000015258789L25.9840068359375,15.184000015258789L25.9840068359375,19.60000001525879L20.9600068359375,19.60000001525879L20.9600068359375,15.184000015258789ZM12.4320068359375,19.60000001525879L17.3600068359375,19.60000001525879L17.3600068359375,15.184000015258789L12.4320068359375,15.184000015258789L12.4320068359375,19.60000001525879Z" fill="#FFFFFF" fill-opacity="1"/></g><g><path d="M31.91999755859375,2.559999465942383L6.47999755859375,2.559999465942383C4.30399755859375,2.559999465942383,2.55999755859375,4.319999465942383,2.55999755859375,6.479999465942383L2.55999755859375,31.935999465942384C2.55999755859375,34.11199946594238,4.31999755859375,35.85599946594238,6.47999755859375,35.85599946594238L31.93599755859375,35.85599946594238C34.11199755859375,35.85599946594238,35.85599755859375,34.095999465942384,35.85599755859375,31.935999465942384L35.85599755859375,6.479999465942383C35.83999755859375,4.303999465942383,34.079997558593746,2.559999465942383,31.91999755859375,2.559999465942383ZM29.69599755859375,23.839999465942384L25.98399755859375,23.839999465942384L25.98399755859375,22.335999465942383L20.95999755859375,22.335999465942383L20.95999755859375,30.975999465942383L17.34399755859375,30.975999465942383L17.34399755859375,22.335999465942383L12.41599755859375,22.335999465942383L12.41599755859375,24.143999465942382L9.00799755859375,24.143999465942382L9.00799755859375,12.383999465942383L17.23199755859375,12.383999465942383L17.23199755859375,7.455999465942383L20.65599755859375,7.455999465942383C21.11999755859375,7.519999465942383,21.35999755859375,7.583999465942383,21.35999755859375,7.647999465942383C21.34399755859375,7.759999465942383,21.31199755859375,7.855999465942383,21.26399755859375,7.951999465942383C21.05599755859375,8.479999465942383,20.95999755859375,9.119999465942382,20.95999755859375,9.855999465942382L20.95999755859375,12.367999465942383L29.69599755859375,12.367999465942383L29.69599755859375,23.839999465942384Z" fill="#FFFFFF" fill-opacity="1"/></g></g></svg>